<?xml version="1.0" encoding="UTF-8" standalone="no"?><svg id="svg" xmlns="http://www.w3.org/2000/svg" xmlns:xlink="http://www.w3.org/1999/xlink" width="40" height="40" viewBox="0, 0, 256, 256"><g id="svgg"><path style="fill:#78bde3;fill-opacity:1;stroke-width:0.15625" d="M 20 0 C 14.657813 0 9.6349219 2.0799219 5.8574219 5.8574219 C 2.0799219 9.6349219 -5.9211895e-16 14.657813 0 20 C 0 25.342188 2.0799219 30.365078 5.8574219 34.142578 C 9.6349219 37.920078 14.657813 40 20 40 C 25.342188 40 30.365078 37.920078 34.142578 34.142578 C 37.920078 30.365078 40 25.342187 40 20 C 40 14.657813 37.920078 9.6349219 34.142578 5.8574219 C 30.365078 2.0799219 25.342187 -1.1842379e-15 20 0 z M 20 1.0332031 C 30.475 1.0332031 38.966797 9.525 38.966797 20 C 38.966797 30.475 30.474844 38.966797 20 38.966797 C 9.525 38.966797 1.0332031 30.475 1.0332031 20 C 1.0332031 9.525 9.525 1.0332031 20 1.0332031 z " transform="scale(6.4)" id="path0" /><path style="opacity:1;vector-effect:none;fill:#78bce3;fill-opacity:1;stroke-width:0.05800511;stroke-linecap:butt;stroke-linejoin:miter;stroke-miterlimit:4;stroke-dasharray:none;stroke-dashoffset:0;stroke-opacity:1" d="M 31.585938 7.7246094 L 22.894531 10.621094 L 14.205078 13.517578 L 11.308594 22.207031 L 8.4121094 30.896484 L 17.101562 28 L 19.626953 27.158203 L 19.626953 22.166016 C 19.632753 22.166784 19.638725 22.167223 19.644531 22.167969 C 17.980553 21.95882 16.771538 20.383822 17.1875 18.619141 C 17.479534 17.380252 18.507774 16.618224 19.626953 16.466797 L 19.626953 11.712891 L 22.896484 10.623047 L 31.585938 7.7246094 z M 20.263672 16.447266 C 20.25061 16.446324 20.237677 16.449988 20.224609 16.449219 C 20.259278 16.451652 20.293509 16.455299 20.328125 16.458984 C 20.306425 16.456938 20.285397 16.448832 20.263672 16.447266 z M 21.482422 16.826172 C 21.492896 16.832467 21.503254 16.839254 21.513672 16.845703 C 21.503163 16.839315 21.492987 16.8324 21.482422 16.826172 z M 22.039062 17.255859 C 22.152917 17.369894 22.256083 17.491466 22.347656 17.619141 C 22.256089 17.491437 22.15487 17.369894 22.041016 17.255859 C 22.040638 17.255482 22.03944 17.256237 22.039062 17.255859 z M 22.759766 18.445312 C 22.897018 18.884381 22.929974 19.353856 22.851562 19.8125 C 22.930151 19.352862 22.897615 18.885269 22.759766 18.445312 z M 22.851562 19.8125 C 22.799288 20.118262 22.697252 20.419279 22.544922 20.705078 C 22.452213 20.879018 22.331035 21.047745 22.189453 21.205078 C 22.330671 21.04817 22.454406 20.880521 22.546875 20.707031 C 22.699204 20.421232 22.799266 20.118363 22.851562 19.8125 z M 22.189453 21.205078 C 21.764708 21.677079 21.157435 22.046376 20.585938 22.152344 C 20.377075 22.191071 20.174854 22.192207 19.974609 22.189453 C 20.173448 22.19698 20.376383 22.193153 20.585938 22.154297 C 21.157928 22.048239 21.764334 21.677431 22.189453 21.205078 z " transform="scale(6.4)" id="path1" /><path style="fill:#3b89bf;fill-opacity:1;stroke-width:0.37123269" d="m 202.144,49.43424 -55.6125,18.550002 -20.925,6.974995 v 30.437503 c 5.39029,-0.73117 11.10754,0.6882 15.45,5.0375 5.82935,5.83856 7.13713,14.77103 3.2375,22.0875 -2.37335,4.45286 -7.67322,8.35825 -12.55,9.2625 -2.13169,0.39526 -4.16379,0.33646 -6.1375,0.075 v 31.9625 l 39.4625,-13.15 18.5375,-55.6125 z" id="path2" /></g></svg>